<?xml version="1.0" standalone="no"?>
<!DOCTYPE svg PUBLIC "-//W3C//DTD SVG 20010904//EN"
 "http://www.w3.org/TR/2001/REC-SVG-20010904/DTD/svg10.dtd">
<svg version="1.0" xmlns="http://www.w3.org/2000/svg"
 width="512.000000" height="512.000000" viewBox="0 0 512.000000 512.000000"
 preserveAspectRatio="xMidYMid meet">

<g transform="translate(0.000000,512.000000) scale(0.100000,-0.100000)"
fill="#000000" stroke="none">
<path d="M2480 5072 c-342 -202 -2440 -1489 -2457 -1508 -14 -15 -23 -38 -23
-56 0 -27 20 -52 139 -172 138 -140 139 -142 212 -286 l74 -145 5 -121 c5
-112 7 -124 35 -170 19 -30 51 -62 83 -84 l52 -34 0 -652 0 -652 -30 -12 c-38
-16 -105 -88 -125 -136 -9 -22 -15 -67 -15 -114 0 -71 -2 -78 -24 -88 -36 -16
-93 -69 -118 -110 -17 -28 -24 -57 -28 -122 l-5 -85 -42 -7 c-93 -15 -168 -79
-198 -167 -10 -30 -15 -83 -15 -162 0 -110 2 -120 24 -146 l24 -28 2512 0
2512 0 24 28 c22 26 24 36 24 146 0 79 -5 132 -15 162 -30 88 -105 152 -198
167 l-42 7 -5 80 c-3 48 -12 95 -24 117 -20 41 -82 102 -122 120 -22 10 -24
17 -24 82 0 39 -5 88 -10 108 -13 44 -88 131 -130 148 l-30 12 0 652 0 652 52
34 c32 22 64 54 83 84 28 46 30 58 35 170 l5 121 74 145 c73 144 74 146 212
286 119 120 139 145 139 172 0 18 -9 41 -22 56 -19 20 -2401 1481 -2497 1531
-42 21 -48 20 -121 -23z m1234 -854 c633 -385 1158 -707 1166 -715 12 -11 6
-21 -45 -73 -35 -35 -66 -59 -75 -57 -9 2 -495 299 -1082 660 -586 361 -1078
661 -1092 667 -16 6 -35 6 -50 0 -13 -5 -504 -304 -1091 -666 -588 -361 -1075
-659 -1084 -661 -10 -2 -39 20 -76 57 -58 60 -59 62 -40 77 11 8 441 271 955
585 514 314 1030 628 1145 699 116 70 212 128 214 129 2 0 522 -316 1155 -702z
m-198 -285 l955 -588 -956 -3 c-525 -1 -1385 -1 -1910 0 l-955 3 953 587 c523
323 953 587 955 587 2 1 433 -263 958 -586z m1082 -848 l-42 -85 -1996 0
-1996 0 -42 85 -42 85 2080 0 2080 0 -42 -85z m-3318 -306 c0 -52 -12 -85 -39
-106 -12 -9 -93 -12 -304 -13 l-288 0 -24 25 c-21 20 -25 34 -25 85 l0 60 340
0 340 0 0 -51z m850 -9 c0 -51 -4 -65 -25 -85 l-24 -25 -288 0 c-211 1 -292 4
-304 13 -27 21 -39 54 -39 106 l0 51 340 0 340 0 0 -60z m690 -12 c0 -114 47
-195 141 -244 l29 -15 0 -653 0 -654 -30 -12 c-41 -17 -99 -76 -121 -124 -13
-28 -19 -65 -19 -113 l0 -73 -260 0 -260 0 0 73 c0 48 -6 85 -19 113 -22 48
-80 107 -121 124 l-30 12 0 654 0 653 29 15 c94 49 141 130 141 244 l0 72 260
0 260 0 0 -72z m850 21 c0 -52 -12 -85 -39 -106 -12 -9 -93 -12 -304 -13
l-288 0 -24 25 c-21 20 -25 34 -25 85 l0 60 340 0 340 0 0 -51z m850 -9 c0
-51 -4 -65 -25 -85 l-24 -25 -288 0 c-211 1 -292 4 -304 13 -27 21 -39 54 -39
106 l0 51 340 0 340 0 0 -60z m-3120 -240 c14 -11 31 -20 38 -20 9 0 12 -138
12 -657 l-1 -658 -42 -26 -42 -25 -42 25 -42 26 -1 658 c0 554 2 657 14 657 8
0 24 9 37 20 30 24 38 24 69 0z m2387 0 c14 -11 32 -20 39 -20 12 0 14 -108
14 -657 l-1 -658 -42 -26 -42 -25 -42 25 -42 26 -1 658 c0 519 3 657 13 657 6
0 23 9 37 20 31 25 36 25 67 0z m-2677 -680 l0 -640 -170 0 -170 0 0 640 0
640 170 0 170 0 0 -640z m850 0 l0 -640 -170 0 -170 0 0 640 0 640 170 0 170
0 0 -640z m1540 0 l0 -640 -170 0 -170 0 0 640 0 640 170 0 170 0 0 -640z
m850 0 l0 -640 -170 0 -170 0 0 640 0 640 170 0 170 0 0 -640z m-3094 -843
c19 -22 24 -39 24 -83 l0 -54 -340 0 -340 0 0 58 c0 59 17 89 60 105 8 3 140
5 293 4 l279 -2 24 -28z m848 4 c22 -21 26 -33 26 -83 l0 -58 -340 0 -340 0 0
53 c0 57 18 92 54 107 11 5 146 8 298 7 l276 -2 26 -24z m1542 -4 c19 -22 24
-39 24 -83 l0 -54 -340 0 -340 0 0 58 c0 59 17 89 60 105 8 3 140 5 293 4
l279 -2 24 -28z m848 4 c22 -21 26 -33 26 -83 l0 -58 -340 0 -340 0 0 53 c0
57 18 92 54 107 11 5 146 8 298 7 l276 -2 26 -24z m170 -340 c23 -21 26 -33
26 -88 l0 -63 -827 0 -827 0 -23 -22 c-33 -31 -31 -87 3 -119 l26 -24 933 -5
c1070 -6 966 6 973 -105 l4 -65 -2392 0 -2392 0 4 65 c7 111 -97 99 973 105
l933 5 26 24 c33 31 35 85 4 118 l-21 23 -829 0 -828 0 0 63 c0 53 4 67 23 84
12 12 31 23 42 26 11 3 948 4 2082 3 l2061 -1 26 -24z"/>
<path d="M2487 4230 c-101 -26 -197 -105 -240 -198 -17 -37 -22 -66 -22 -137
0 -78 4 -97 28 -146 48 -99 144 -170 251 -187 151 -24 297 51 363 187 24 49
28 68 28 146 0 108 -20 159 -89 233 -78 83 -216 127 -319 102z m116 -171 c50
-13 103 -61 118 -106 25 -77 -12 -172 -81 -208 -16 -8 -52 -15 -80 -15 -62 0
-100 18 -136 65 -69 91 -28 221 82 260 48 17 50 17 97 4z"/>
</g>
</svg>
