<?xml version="1.0" standalone="no"?>
<!DOCTYPE svg PUBLIC "-//W3C//DTD SVG 20010904//EN"
 "http://www.w3.org/TR/2001/REC-SVG-20010904/DTD/svg10.dtd">
<svg version="1.0" xmlns="http://www.w3.org/2000/svg"
 width="512.000000" height="512.000000" viewBox="0 0 512.000000 512.000000"
 preserveAspectRatio="xMidYMid meet">

<g transform="translate(0.000000,512.000000) scale(0.100000,-0.100000)"
fill="#000000" stroke="none">
<path d="M1943 5110 c-151 -30 -282 -167 -313 -325 -8 -44 -10 -541 -8 -1840
l3 -1780 105 -239 c57 -132 115 -252 128 -268 35 -42 74 -58 137 -58 l55 0 0
-192 c0 -106 3 -203 6 -215 l6 -23 -521 0 -521 0 0 798 0 797 -24 50 c-13 28
-36 62 -52 77 -36 33 -110 67 -146 68 l-28 0 0 729 0 728 67 17 c203 50 363
177 453 361 60 120 73 187 67 330 -7 190 -66 325 -196 454 -311 309 -824 248
-1056 -124 -127 -204 -137 -442 -28 -665 86 -177 254 -310 446 -356 l77 -18 0
-727 0 -726 -39 -6 c-80 -10 -152 -63 -194 -141 -22 -41 -22 -42 -25 -843 l-3
-803 -140 0 -141 0 -29 -29 c-38 -38 -38 -74 0 -112 l29 -29 2502 0 2502 0 29
29 c38 38 38 74 0 112 l-29 29 -192 0 -192 0 6 23 c3 12 6 109 6 215 l0 192
55 0 c63 0 102 16 137 58 13 16 72 140 131 274 l107 246 0 1788 c0 1461 -3
1798 -14 1839 -41 157 -166 277 -317 305 -64 12 -2785 12 -2846 0z m2832 -171
c54 -14 118 -67 148 -123 l22 -41 3 -1747 2 -1748 -508 0 -509 0 -6 114 c-8
165 -48 240 -157 290 -43 20 -61 21 -395 21 -393 0 -399 -1 -473 -69 -69 -63
-82 -100 -82 -238 l0 -118 -515 0 -515 0 2 1748 3 1747 22 41 c28 53 94 110
141 122 55 15 2760 15 2817 1z m-3943 -355 c129 -44 239 -134 297 -245 45 -82
61 -148 61 -245 0 -197 -106 -367 -285 -455 -200 -98 -427 -59 -585 102 -200
203 -197 512 5 714 107 108 239 159 385 150 41 -2 96 -12 122 -21z m-7 -2819
l25 -24 0 -786 0 -785 -170 0 -170 0 2 784 3 784 24 26 c24 25 29 26 143 26
113 0 120 -1 143 -25z m2899 -254 c25 -23 26 -30 26 -128 l0 -103 -380 0 -380
0 0 103 c0 95 2 105 23 124 12 12 31 23 42 26 11 3 160 4 332 4 l311 -2 26
-24z m1171 -418 c-3 -10 -36 -87 -72 -170 l-66 -153 -1387 0 -1386 0 -68 158
c-38 86 -71 163 -73 170 -4 9 305 12 1527 12 1455 0 1532 -1 1525 -17z m-2335
-679 l0 -186 -29 -29 c-29 -29 -31 -29 -141 -29 -110 0 -112 0 -141 29 l-29
29 0 186 0 186 170 0 170 0 0 -186z m1450 2 c0 -101 3 -198 6 -215 l7 -31
-653 0 -652 0 6 31 c3 17 6 114 6 215 l0 184 640 0 640 0 0 -184z m510 -4 c0
-247 0 -247 -189 -240 -149 5 -145 -1 -149 238 l-3 190 170 0 171 0 0 -188z"/>
<path d="M2148 4766 c-129 -35 -198 -155 -185 -323 7 -90 34 -151 90 -198 79
-68 15 -65 1317 -65 1335 0 1246 -5 1330 80 57 56 80 119 80 220 0 101 -23
164 -80 220 -84 85 5 80 -1329 79 -913 0 -1186 -3 -1223 -13z m2411 -170 c35
-19 51 -55 51 -117 0 -60 -22 -106 -56 -119 -16 -6 -471 -10 -1185 -10 -1277
0 -1205 -4 -1228 61 -25 71 -7 160 38 184 39 21 2338 22 2380 1z"/>
<path d="M2150 4001 c-73 -23 -136 -78 -167 -146 -17 -37 -18 -88 -21 -664 -2
-428 1 -641 8 -678 17 -80 63 -142 134 -178 l60 -30 1205 0 1206 0 58 29 c70
34 121 98 137 169 6 30 10 273 10 661 0 684 0 683 -67 757 -20 22 -55 50 -77
62 l-41 22 -1210 2 c-665 1 -1221 -2 -1235 -6z m2427 -185 l28 -24 3 -616 c3
-696 5 -676 -66 -696 -28 -7 -394 -10 -1194 -8 -1275 3 -1188 -2 -1209 68 -7
23 -9 248 -7 643 l3 609 28 24 28 24 1179 0 1179 0 28 -24z"/>
<path d="M2176 2105 c-149 -61 -234 -212 -205 -369 21 -117 88 -204 198 -254
80 -38 192 -37 273 0 121 56 190 160 196 293 5 111 -21 180 -97 256 -99 99
-237 127 -365 74z m222 -172 c96 -71 97 -216 2 -279 -101 -67 -229 -19 -260
96 -20 74 24 165 95 196 42 20 129 13 163 -13z"/>
<path d="M4310 2108 c-77 -30 -159 -114 -189 -193 -19 -49 -22 -75 -19 -140 5
-95 31 -155 96 -222 129 -133 358 -131 483 4 64 70 93 143 92 233 -1 115 -42
201 -127 269 -89 71 -227 91 -336 49z m199 -162 c42 -22 87 -79 95 -120 15
-80 -32 -162 -109 -192 -164 -62 -301 145 -182 275 45 49 138 66 196 37z"/>
</g>
</svg>
